#!OML:ASF F:\VICON\USERDATA\INSTALL\Justin_Nancy\Justin_Nancy.ASF
:FULLY-SPECIFIED
:DEGREES
66
root 3.98607 16.2695 5.38702 -5.17071 -48.3911 16.3289
lowerback 12.1046 -0.931145 -5.40995
upperback 1.04936 -1.98085 0.12343
thorax -5.50058 -0.856855 3.51096
lowerneck -16.0057 -1.90044 -11.1355
upperneck 15.42 -0.958113 5.50719
head 7.46259 -0.606393 3.53616
rclavicle -5.84427e-014 -9.54166e-015
rhumerus -53.3654 3.66212 -89.7373
rradius 112.74
rwrist -6.73982
rhand -17.4254 27.7381
rfingers 7.12502
rthumb 8.82489 -2.0574
lclavicle -5.84427e-014 -9.54166e-015
lhumerus -48.9865 -12.6279 97.8848
lradius 101.097
lwrist 32.0154
lhand -17.8415 7.55624
lfingers 7.12502
lthumb 8.42335 37.3683
rfemur -20.6902 -1.17006 36.2567
rtibia 39.9177
rfoot -14.3896 -4.02035
rtoes 27.9762
lfemur -13.0855 12.2278 -12.8307
ltibia 84.896
lfoot 2.90523 7.30331
ltoes -9.57884
67
root 3.79556 16.1623 5.75143 -3.1376 -48.0144 14.1079
lowerback 12.7797 -0.918689 -5.04259
upperback 0.798504 -1.90945 0.855709
thorax -6.13692 -0.794718 4.09582
lowerneck -16.2807 -2.01639 -11.0826
upperneck 15.4822 -1.09804 5.5151
head 7.54291 -0.667043 3.51651
rclavicle 2.26615e-014 1.74931e-014
rhumerus -51.9819 4.35535 -89.9442
rradius 112.668
rwrist -5.82674
rhand -17.7367 27.6034
rfingers 7.12502
rthumb 8.5244 -2.20453
lclavicle 2.26615e-014 1.74931e-014
lhumerus -50.2308 -11.7353 98.1747
lradius 100.66
lwrist 31.5208
lhand -18.5769 6.74228
lfingers 7.12502
lthumb 7.71351 36.5816
rfemur -19.7766 0.245497 37.5388
rtibia 40.6376
rfoot -15.8951 -6.384
rtoes 24.3636
lfemur -17.6185 12.1121 -9.61553
ltibia 87.4837
lfoot 1.40781 6.18595
ltoes -8.93099
68
root 3.58441 16.0895 6.17278 -1.5946 -47.752 12.6791
lowerback 12.713 -1.04743 -4.66975
upperback 0.620565 -1.99109 1.36376
thorax -6.27436 -0.829147 4.44088
lowerneck -16.3721 -1.99436 -11.2016
upperneck 15.4296 -1.03141 5.54327
head 7.53658 -0.637192 3.5523
rclavicle -9.93923e-015 -3.65764e-014
rhumerus -50.4691 5.26527 -90.4104
rradius 112.447
rwrist -4.13623
rhand -17.4075 27.6917
rfingers 7.12502
rthumb 8.84212 -2.10309
lclavicle -9.93923e-015 -3.65764e-014
lhumerus -51.4606 -10.2972 98.2436
lradius 100.425
lwrist 30.52
lhand -18.8028 6.74342
lfingers 7.12502
lthumb 7.49554 36.5906
rfemur -18.7958 1.48709 37.9773
rtibia 41.2396
rfoot -17.8439 -7.57179
rtoes 25.7983
lfemur -21.9653 11.9147 -7.75574
ltibia 89.3014
lfoot 0.115516 5.64358
ltoes -9.35782
69
root 3.35915 16.0421 6.62592 -1.18202 -47.4101 12.135
lowerback 12.8223 -1.1608 -4.46244
upperback 0.640086 -2.10603 1.52158
thorax -6.30331 -0.888805 4.51494
lowerneck -16.3603 -1.92494 -11.1159
upperneck 15.1394 -0.958457 5.57714
head 7.43161 -0.586876 3.55325
rclavicle -1.26825e-013 0
rhumerus -48.9737 5.88271 -90.8671
rradius 112.621
rwrist -2.07662
rhand -16.6295 27.6528
rfingers 7.12502
rthumb 9.59278 -2.10885
lclavicle -1.26825e-013 0
lhumerus -52.797 -8.89529 98.3385
lradius 100.47
lwrist 29.4972
lhand -19.2744 6.78647
lfingers 7.12502
lthumb 7.04028 36.6494
rfemur -17.1031 2.20588 37.7003
rtibia 41.7446
rfoot -19.9549 -8.04163
rtoes 26.5275
lfemur -25.3113 11.3682 -7.09444
ltibia 90.1758
lfoot -1.19882 5.97847
ltoes -13.3203
70
root 3.11817 16.0089 7.07968 -0.992306 -47.0863 11.9279
lowerback 12.7268 -1.04874 -4.3385
upperback 0.615831 -1.93434 1.53414
thorax -6.29783 -0.807661 4.42512
lowerneck -15.9895 -2.15173 -11.0976
upperneck 14.739 -1.33329 5.71641
head 7.27008 -0.747128 3.54886
rclavicle -1.19271e-014 -4.29375e-014
rhumerus -48.1175 6.02951 -91.1772
rradius 113.443
rwrist -0.440739
rhand -16.0591 27.84
rfingers 7.12502
rthumb 10.1432 -1.89546
lclavicle -1.19271e-014 -4.29375e-014
lhumerus -54.2334 -8.39758 98.5512
lradius 100.585
lwrist 29.0397
lhand -19.4297 6.65603
lfingers 7.12502
lthumb 6.89034 36.5239
rfemur -15.1809 2.74539 37.2594
rtibia 42.0036
rfoot -21.646 -8.49386
rtoes 25.7829
lfemur -28.6038 10.8344 -6.82726
ltibia 90.3751
lfoot -2.38257 6.52768
ltoes -16.1146
71
root 2.86871 15.9935 7.53716 -0.559529 -47.0239 11.4856
lowerback 12.4585 -0.743091 -4.06235
upperback 0.682027 -1.4747 1.5863
thorax -6.13123 -0.596155 4.23387
lowerneck -15.8586 -2.57946 -11.0981
upperneck 14.4127 -1.93088 5.75653
head 7.19514 -1.02371 3.49233
rclavicle -9.14409e-014 -3.18055e-015
rhumerus -47.2521 5.98419 -91.6154
rradius 114.532
rwrist 0.321815
rhand -16.1869 28.3453
rfingers 7.12502
rthumb 10.0199 -1.39623
lclavicle -9.14409e-014 -3.18055e-015
lhumerus -55.3167 -8.49741 98.7878
lradius 100.696
lwrist 28.8593
lhand -19.0606 6.4643
lfingers 7.12502
lthumb 7.24667 36.3202
rfemur -13.199 3.06315 37.0177
rtibia 41.8751
rfoot -22.7047 -8.49546
rtoes 25.9248
lfemur -31.8498 10.5858 -6.42959
ltibia 90.0829
lfoot -3.38547 6.92192
ltoes -15.9362
